<svg id="git-consensus" data-name="git-consensus" xmlns="http://www.w3.org/2000/svg" viewBox="0 0 6197 3292"><defs><style>.cls-3{fill:#fff}.cls-6{letter-spacing:.02em}</style></defs><path style="stroke:#000;stroke-miterlimit:10;fill:#fff" d="M.5.5h6196v3291H.5z"/><path d="m2710.2 1129.6-458.4-458.4a67.6 67.6 0 0 0-95.6 0l-456.3 456.3a67.6 67.6 0 0 0 0 95.6l458.4 458.4a67.6 67.6 0 0 0 95.6 0l456.3-456.2a67.72 67.72 0 0 0 0-95.7" style="fill:#f05133"/><path class="cls-3" d="m2205.1 1302 201.8-119.3-201.8-334.9-201.8 334.9 201.8 119.3Z"/><path class="cls-3" d="m2205.1 1495.4 202-284.4-202 119.2-201.8-119.2Z"/><text transform="translate(2989.63 1379.64)" style="letter-spacing:.02em;isolation:isolate;font-size:1020px;font-family:Adelle-SemiBold,Adelle;font-weight:600">git</text><text transform="translate(543.04 2493.17)" style="letter-spacing:.01em;isolation:isolate;font-size:1020px;font-family:Adelle-SemiBold,Adelle;font-weight:600">c<tspan class="cls-6" x="516.12" y="0">onsen</tspan><tspan x="3487.34" y="0" style="letter-spacing:.01em">s</tspan><tspan x="3982.04" y="0" style="letter-spacing:.02em">u</tspan><tspan class="cls-6" x="4637.9" y="0">s</tspan></text></svg>